<?xml version="1.0" encoding="UTF-8"?>
<svg xmlns="http://www.w3.org/2000/svg" width="1500" height="1000" viewBox="0 0 1800 1200">
 <defs>
  <style type="text/css">
   <![CDATA[
    .str3 {stroke:#D39D1F;stroke-width:4}
    .str2 {stroke:#D09F2C;stroke-width:4;stroke-linecap:round;stroke-linejoin:round}
    .str1 {stroke:#D39D1F;stroke-width:4;stroke-linecap:round;stroke-linejoin:round}
    .str0 {stroke:#B44B27;stroke-width:4;stroke-linecap:round;stroke-linejoin:round}
    .str4 {stroke:#D39D1F;stroke-width:4;stroke-linecap:square}
    .fil4 {fill:none;fill-rule:nonzero}
    .fil1 {fill:#FEFEFE;fill-rule:nonzero}
    .fil2 {fill:#FBBA00;fill-rule:nonzero}
    .fil0 {fill:#12723B;fill-rule:nonzero}
    .fil3 {fill:#FBFBFC;fill-rule:nonzero}
   ]]>
  </style>
 </defs>
  <rect class="fil1" width="1800" height="1200"/>
  <rect class="fil0" width="1800" height="960"/>
  <path class="fil2 str0" d="M621 232l-18 0c0,0 -13,-2 -9,-14 5,-13 16,-17 17,-32 4,9 -9,43 13,41 -31,-29 39,-58 30,-81 22,20 -33,58 -14,67 -11,-14 51,-59 45,-77 21,25 -24,46 -11,57 6,-25 48,-34 38,-63 17,22 -15,53 -8,55 2,-9 48,-39 36,-57 19,17 -14,45 -11,56 7,-14 47,-35 42,-51 7,31 -20,38 -21,54 13,-29 38,-22 60,-40 2,24 -43,31 -42,46 15,-25 69,-2 76,-19 1,20 -44,13 -56,35 19,-22 74,7 81,-9 -17,26 -47,6 -68,28 24,-17 71,13 88,-4 -13,23 -66,6 -79,26 35,-16 64,14 91,5 -26,16 -74,0 -83,19 31,-15 51,20 93,11 -20,17 -72,-5 -85,14 24,-17 74,27 93,14 -8,20 -72,-11 -83,16 19,-20 56,24 89,4 -18,25 -64,2 -80,17 19,-1 74,18 83,4 -7,20 -67,6 -70,20 38,-10 37,7 77,-2 -19,18 -54,4 -57,25 24,-10 32,5 71,-10 -19,24 -38,27 -38,27 0,0 -44,-1 -74,-83 -27,-52 -19,-144 -108,-147 -78,1 -108,48 -108,48z"/>
  <path class="fil2 str0" d="M1186 435c75,-69 129,-23 146,-4 42,48 -29,114 37,185 -98,17 -120,-33 -110,-91 10,-63 7,-102 -65,-79 -8,-11 0,0 -8,-11z"/>
  <path class="fil2 str0" d="M1188 438c0,0 89,-70 128,13 15,33 -30,136 48,165 0,0 -97,-2 -90,-62 8,-71 6,-90 -4,-104 -25,-32 -77,-6 -77,-6l-5 -6z"/>
  <path class="fil2 str0" d="M1190 439c0,0 60,-34 94,-10 42,29 5,105 22,150 12,29 49,39 49,39 0,0 -40,-1 -60,-38 -15,-27 12,-120 -18,-142 -36,-25 -86,4 -86,4l-1 -3z"/>
  <path class="fil1 str1" d="M687 246c43,57 -31,74 -39,92 -11,21 -2,28 -7,41 -5,12 -15,12 -19,9 -3,-3 12,-28 3,-30 -9,-1 -10,37 -25,30 -14,-9 -4,-24 -3,-24 2,1 -4,15 -12,9 -8,-5 5,-25 9,-38 5,-13 5,-16 6,-25 1,-8 1,-20 2,-31 1,-11 6,-16 6,-16 0,0 -22,3 -25,-6 8,-6 28,-11 28,-11 0,0 -25,0 -25,-7 0,-2 35,-7 35,-7 0,0 22,-33 74,-45 46,-11 69,4 79,10 53,32 43,189 134,216 74,15 136,-14 194,-13 58,1 100,40 108,80 8,40 -23,100 -19,118 4,19 65,34 67,47 2,13 -42,84 -58,129 -17,46 -12,65 -12,65 0,0 -5,-15 -10,-12 -5,4 -3,34 -3,34l-53 1c24,-38 39,-44 39,-44l5 -20c3,-25 51,-95 43,-119 -20,-53 -67,-37 -122,-77 -55,-40 -81,-103 -81,-103 0,0 19,38 35,58 -39,5 -69,12 -69,12 0,0 -145,36 -189,9 13,-17 13,-38 13,-38 0,0 3,26 -13,38l-2 -36c0,0 1,84 -7,104 15,29 2,47 2,47 0,0 5,52 5,83 -5,49 0,54 -4,55 -5,1 -4,-14 -9,-13 -7,2 -9,35 -9,35l-53 1c0,0 19,-25 26,-31 7,-6 12,-4 18,-12 4,-10 9,-31 9,-60 -1,-17 -5,-57 -5,-57 0,0 -21,-13 -9,-60 -9,-39 -32,-98 -32,-98l15 41c-45,18 -135,-38 -152,-35 -16,2 12,71 13,72 1,1 2,3 4,5 2,1 16,0 17,4 2,3 -15,2 -11,16 3,15 26,4 26,4l16 47c0,0 -22,-1 -31,-11 -9,-9 -5,-12 -11,-16 -5,-4 -6,2 -19,-4 -8,-4 -17,-53 -31,-83 -15,-37 -25,-40 -15,-57 15,-19 31,-3 44,-1 26,4 92,6 105,4 8,39 43,55 43,55 0,0 -49,-19 -45,-87 4,-63 15,-32 31,-97 12,-67 -14,-101 -14,-101l-11 -46z"/>
  <path class="fil1 str2" d="M973 569c23,57 41,72 44,108 2,41 -78,116 -80,126 -1,9 1,7 -3,13 -4,7 -11,7 -17,13 -5,5 -25,29 -25,29l52 0c0,0 2,-35 10,-34 5,1 4,11 8,12 3,0 -7,-16 42,-77 34,-49 59,-67 58,-79 0,-9 -16,-13 -16,-39 0,-25 41,-39 41,-39 -19,-15 -42,-39 -46,-45 -13,-1 -68,12 -68,12z"/>
  <path class="fil3 str3" d="M1189 462c15,31 -2,73 -2,73l2 -73z"/>
  <path class="fil2 str2" d="M912 835c20,1 33,9 33,8 -1,4 -1,15 -1,15l-52 0c0,0 14,-20 20,-23z"/>
  <path class="fil2 str2" d="M617 684c-6,-10 -7,-32 -4,-37 4,-1 12,-4 12,-4l16 46c0,0 -12,0 -24,-5z"/>
  <path class="fil2 str2" d="M726 830c22,0 35,8 35,8 -1,6 -2,15 -2,15l-53 1c0,0 16,-21 20,-24z"/>
  <path class="fil2 str2" d="M1140 837c12,1 24,1 35,9 -1,7 0,15 0,15l-53 1c0,0 13,-20 18,-25z"/>
  <path class="fil0 str4" d="M636 259c-9,9 -20,6 -20,15 -1,10 3,15 3,15 0,0 14,-17 17,-30z"/>
  <path class="fil4 str1" d="M625 276c0,2 -2,4 -4,4 -3,0 -5,-2 -5,-4 0,-3 2,-5 5,-5 2,0 4,2 4,5z"/>
</svg>